<svg id="Layer_1" data-name="Layer 1" xmlns="http://www.w3.org/2000/svg" viewBox="0 0 665.62 192.87"><defs><style>.cls-1,.cls-3,.cls-4,.cls-5,.cls-6{fill:#c8006a;}.cls-2{opacity:0.9;}.cls-3{opacity:0.45;}.cls-4{opacity:0.3;}.cls-5{opacity:0.4;}.cls-6{font-size:103.49px;font-family:Poppins-SemiBold, Poppins;font-weight:600;}</style></defs><path class="cls-1" d="M160.52,146.9c9.84,9.94,19.12,22.26,31.18,29.23,31.07,2.11,64,13.5,10.35,21.78,1.31-2.53,2.83-4.59,1.81-7.19-23.56,9.77-75.4,9.16-99.18-.05-.93,1.49-.93,1.51,1.58,7.16-6.11-1-41-5.64-24.84-14.77,11-5.45,23.73-4.38,35.13-7.5,14-12.29,28.24-24.34,42-36.79,3.14-5.64,1.19-13,7.05-17.53,9-8.77,18.21-17.3,27.35-25.93,1.59-1.72,4.37-1,3.57,1.59C189.84,105,182,112.38,175,120.27c-4.29,12.57,22.25-20.28,24.5-21,12.93-1.11-21.23,24.76-19.11,28.89,3.63,3.84,24.11-28.31,27.55-23.72,3.95,2.1-17.64,21.41-19.9,25.35-3.16,2-2,6.43,1.38,3.11l20.72-22.65c12.11-6.45-11.78,23.14-14.18,24.37-7.55,7.72-19.91,15.35-30.37,8.63C163.35,142.26,161.71,146.13,160.52,146.9Zm-6.05,43.58c12.64,1.41,70.74-4.43,25.8-11.38-4-.56-5.3-5.3-8.12-7.69-5-5.44-10-10.87-15.14-16.18-2.93-3-3.12-3-6-.06-6.64,6.76-13.33,13.46-19.69,20.47-4.35,5.25-11.78,4-17.62,6.58C103.84,190.82,150,190.65,154.47,190.48Z" transform="translate(-77.19 -55.34)"/><path class="cls-1" d="M138.62,147.31c-11.2-2.5-43.68-41.7-34.06-51.28,5.56-1.06,9.34,7.37,13.61,10.24Q132,120,145.89,133.77c1.44,2,5,3.89,4.57,6.5-3.18,3.36-6.28,6.95-11.66,6.42Z" transform="translate(-77.19 -55.34)"/><path class="cls-2" d="M109.31,199.26a301.3,301.3,0,0,0,90.14,0c-13.24,16.19-76,15.48-90.45.59Z" transform="translate(-77.19 -55.34)"/><path class="cls-3" d="M157.67,64.17c.35,3.08-1.29,5.62-2.87,8.21-9.56,12,10.1,18.19,1.41,31.38-2.53,3.36-3.56,7.08-1.69,11.16,1.51,9.49-12.61.76-3.53-13.7,4.75-7.34-3.78-12.31-4.43-19.38-2-8.55,8.58-14.42,3.89-22.68-.71-1.36-.65-2.75.89-3.6C155.63,54.07,157.84,60.66,157.67,64.17Z" transform="translate(-77.19 -55.34)"/><path class="cls-4" d="M142.9,77.58c-1,2.74-1.64,5.66-3.18,8.17-4.12,7.44,9.29,13.38,3.18,22.12-6,4-1.93-7.37-6.89-11.13-6.93-7.3,1.41-14.28,1.91-22-.41-2.72,3-2.43,4-.76a11.69,11.69,0,0,1,.7,3.47Z" transform="translate(-77.19 -55.34)"/><path class="cls-4" d="M172.09,90.19c.75,6.15-5.8,9.5-5,15.45.18,1.22-.24,2.39-1.5,2.39-5.59-1.33-3.05-9.54-.65-12.87,5.49-7.06-6-13.22-2.43-20.73.59-2.72,4.9-2.2,4.27.67C166.1,80.92,172.64,84.42,172.09,90.19Z" transform="translate(-77.19 -55.34)"/><path class="cls-5" d="M129.9,147.84c-11.65,3.14-32.54-30.49-31.82-41.78l.88-.37C106,122.1,115.92,136.34,129.9,147.84Z" transform="translate(-77.19 -55.34)"/><path class="cls-1" d="M104.68,190.67c-12.63,20.48,91,12.67,94.77,8.55,8.32-5.12,12.71-7.23,12.71-7.23l-7.26-5.15S173.26,206.76,104.68,190.67Z" transform="translate(-77.19 -55.34)"/><text class="cls-6" transform="translate(180.99 131.5)">meaLoyo</text></svg>